<svg id="svg" xmlns="http://www.w3.org/2000/svg" xmlns:xlink="http://www.w3.org/1999/xlink" width="400" height="400" viewBox="0, 0, 400,400"><g id="svgg"><path id="path0" d="M199.778 15.031 C 199.545 15.132,196.935 15.653,193.978 16.187 C 184.042 17.984,179.017 19.381,172.000 22.299 C 171.230 22.620,170.240 23.020,169.800 23.189 C 167.001 24.267,158.927 28.479,156.937 29.900 C 156.244 30.395,155.594 30.800,155.493 30.800 C 155.089 30.800,145.463 37.616,144.800 38.372 C 144.690 38.497,143.701 39.320,142.603 40.200 C 140.036 42.256,134.078 48.218,131.006 51.805 C 129.689 53.342,128.512 54.690,128.391 54.800 C 127.848 55.291,123.294 61.558,122.432 63.000 C 121.905 63.880,120.693 65.809,119.738 67.287 C 118.782 68.764,117.313 71.374,116.473 73.087 C 115.633 74.799,114.756 76.560,114.525 77.000 C 113.687 78.594,112.400 81.630,112.400 82.015 C 112.400 82.232,112.069 83.172,111.665 84.104 C 110.483 86.833,109.528 89.641,108.979 92.000 C 108.698 93.210,108.184 95.117,107.837 96.238 C 107.490 97.359,107.030 99.339,106.814 100.638 C 106.599 101.937,106.150 104.350,105.816 106.000 C 104.988 110.102,104.591 126.189,105.135 133.662 C 105.552 139.389,105.834 141.038,107.592 148.000 C 108.064 149.870,108.617 152.180,108.819 153.133 C 109.235 155.088,112.196 163.361,113.781 167.000 C 114.356 168.320,114.984 169.760,115.177 170.200 C 115.369 170.640,116.023 172.620,116.631 174.600 C 117.239 176.580,118.411 180.270,119.237 182.800 C 120.062 185.330,120.947 188.210,121.205 189.200 C 121.462 190.190,121.895 191.540,122.168 192.200 C 122.440 192.860,123.139 194.930,123.719 196.800 C 125.088 201.211,126.551 205.844,128.454 211.800 C 129.297 214.440,130.466 218.130,131.051 220.000 C 131.636 221.870,132.448 224.300,132.855 225.400 C 133.262 226.500,133.709 227.989,133.849 228.708 C 133.989 229.428,134.260 230.114,134.452 230.232 C 134.643 230.350,134.800 230.757,134.800 231.135 C 134.800 231.513,135.790 234.864,137.000 238.582 C 138.210 242.299,139.200 245.575,139.200 245.860 C 139.200 246.145,139.540 247.148,139.955 248.089 C 140.779 249.955,143.604 258.598,144.436 261.800 C 144.722 262.900,145.190 264.250,145.476 264.800 C 145.761 265.350,146.000 266.160,146.006 266.600 C 146.013 267.040,146.354 268.141,146.765 269.046 C 147.176 269.952,147.634 271.302,147.782 272.046 C 147.930 272.791,148.383 274.300,148.788 275.400 C 149.193 276.500,150.274 279.740,151.189 282.600 C 153.639 290.256,153.039 289.751,159.343 289.462 C 162.234 289.330,188.541 289.216,217.803 289.211 L 271.006 289.200 272.103 287.384 C 272.706 286.385,273.200 285.305,273.200 284.985 C 273.200 284.151,276.427 274.274,276.848 273.820 C 277.042 273.611,277.200 272.972,277.200 272.400 C 277.200 271.828,277.348 271.189,277.529 270.980 C 277.710 270.771,278.184 269.520,278.582 268.200 C 278.980 266.880,279.541 265.170,279.827 264.400 C 280.114 263.630,280.553 262.280,280.802 261.400 C 281.052 260.520,281.402 259.440,281.580 259.000 C 281.758 258.560,282.490 256.310,283.206 254.000 C 283.922 251.690,284.738 249.260,285.018 248.600 C 285.299 247.940,285.732 246.590,285.981 245.600 C 286.230 244.610,286.593 243.440,286.788 243.000 C 286.983 242.560,287.439 241.210,287.800 240.000 C 288.161 238.790,288.608 237.440,288.793 237.000 C 288.977 236.560,289.613 234.670,290.205 232.800 C 290.797 230.930,291.713 228.226,292.241 226.790 C 292.768 225.355,293.200 223.861,293.200 223.470 C 293.200 223.080,293.470 222.238,293.800 221.600 C 294.130 220.962,294.660 219.486,294.978 218.320 C 295.297 217.154,296.165 214.400,296.908 212.200 C 297.651 210.000,298.766 206.580,299.386 204.600 C 300.006 202.620,300.839 200.100,301.238 199.000 C 301.636 197.900,302.528 195.200,303.219 193.000 C 303.911 190.800,304.631 188.640,304.820 188.200 C 305.008 187.760,305.333 186.770,305.542 186.000 C 305.750 185.230,306.231 183.700,306.611 182.600 C 306.990 181.500,307.701 179.430,308.190 178.000 C 308.679 176.570,309.486 174.230,309.983 172.800 C 310.480 171.370,311.031 169.660,311.209 169.000 C 311.387 168.340,312.019 166.540,312.615 165.000 C 315.532 157.455,317.904 149.848,318.227 147.000 C 318.376 145.680,318.639 144.420,318.811 144.200 C 318.983 143.980,319.412 141.280,319.764 138.200 C 320.117 135.120,320.584 131.599,320.802 130.376 C 321.320 127.482,321.313 117.967,320.792 114.507 C 320.567 113.018,320.033 109.370,319.604 106.400 C 318.909 101.583,318.176 97.604,317.373 94.294 C 317.225 93.686,316.946 93.090,316.752 92.970 C 316.559 92.851,316.400 92.359,316.400 91.877 C 316.400 90.959,314.106 83.690,313.599 83.000 C 313.437 82.780,313.093 81.943,312.834 81.140 C 312.063 78.744,308.112 71.159,304.737 65.596 C 299.590 57.111,289.856 45.919,282.200 39.683 C 280.660 38.428,279.310 37.300,279.200 37.175 C 278.800 36.721,270.415 30.800,270.173 30.800 C 270.036 30.800,269.362 30.400,268.676 29.911 C 266.332 28.243,254.451 22.468,252.000 21.806 C 251.450 21.657,250.237 21.190,249.304 20.768 C 248.372 20.345,247.428 20.000,247.208 20.000 C 246.987 20.000,245.500 19.573,243.904 19.050 C 240.718 18.008,239.219 17.662,231.200 16.119 C 226.101 15.138,201.489 14.286,199.778 15.031 " stroke="none" fill="#f3ab0c" fill-rule="evenodd"></path><path id="path1" d="M156.400 289.987 L 153.000 290.200 153.138 315.200 C 153.213 328.950,153.438 340.849,153.637 341.641 L 153.999 343.083 160.739 343.295 C 170.275 343.595,169.200 341.428,169.200 360.354 C 169.200 376.999,169.328 378.392,170.920 379.057 C 172.713 379.807,254.352 379.020,255.126 378.246 C 255.732 377.640,255.813 375.895,255.925 360.898 C 255.999 350.957,256.205 344.035,256.436 343.757 C 256.688 343.453,259.462 343.190,264.422 342.999 C 271.553 342.725,272.049 342.655,272.467 341.875 C 273.101 340.690,272.710 290.950,272.062 290.302 C 271.587 289.827,163.650 289.533,156.400 289.987 " stroke="none" fill="#d2c9be" fill-rule="evenodd"></path><path id="path2" d="M0.000 200.000 L 0.000 400.000 200.000 400.000 L 400.000 400.000 400.000 200.000 L 400.000 0.000 200.000 0.000 L 0.000 0.000 0.000 200.000 M221.000 13.396 C 223.860 13.720,227.224 13.988,228.476 13.992 C 229.728 13.996,230.864 14.180,231.000 14.400 C 231.136 14.620,231.838 14.800,232.560 14.800 C 233.282 14.800,234.756 15.068,235.836 15.396 C 236.916 15.723,238.207 15.993,238.705 15.996 C 239.203 15.998,239.923 16.165,240.305 16.366 C 240.687 16.567,242.260 17.041,243.800 17.419 C 245.340 17.798,246.771 18.263,246.980 18.454 C 247.189 18.644,247.775 18.800,248.282 18.800 C 248.789 18.800,250.137 19.250,251.277 19.800 C 252.417 20.350,253.603 20.800,253.913 20.800 C 254.223 20.800,254.954 21.051,255.538 21.357 C 256.122 21.664,258.174 22.669,260.097 23.590 C 262.020 24.512,263.696 25.431,263.820 25.633 C 263.945 25.835,264.324 26.000,264.662 26.000 C 265.000 26.000,265.844 26.405,266.537 26.900 C 267.230 27.395,268.427 28.135,269.198 28.545 C 269.969 28.955,271.455 29.900,272.501 30.645 C 273.546 31.390,274.581 32.000,274.801 32.000 C 275.020 32.000,275.200 32.180,275.200 32.400 C 275.200 32.620,275.434 32.800,275.720 32.800 C 276.006 32.800,277.250 33.700,278.484 34.800 C 279.718 35.900,280.886 36.800,281.080 36.800 C 282.105 36.800,293.572 48.128,297.226 52.749 C 298.553 54.427,300.442 56.816,301.424 58.059 C 302.977 60.022,304.009 61.605,305.836 64.827 C 306.075 65.249,306.599 65.957,307.000 66.400 C 307.755 67.234,308.589 68.559,309.014 69.600 C 309.339 70.397,309.669 71.034,310.936 73.314 C 311.521 74.367,312.000 75.563,312.000 75.971 C 312.000 76.380,312.270 76.818,312.600 76.945 C 312.930 77.071,313.200 77.469,313.200 77.829 C 313.200 78.189,313.650 79.380,314.200 80.475 C 314.750 81.570,315.200 82.723,315.200 83.038 C 315.200 83.615,315.342 83.956,316.543 86.262 C 316.904 86.956,317.200 87.993,317.200 88.567 C 317.200 89.141,317.358 89.923,317.551 90.305 C 318.634 92.448,319.200 94.177,319.200 95.347 C 319.200 96.073,319.333 96.799,319.495 96.961 C 319.769 97.236,320.246 99.536,321.243 105.400 C 322.962 115.514,322.428 135.657,320.183 145.400 C 319.828 146.940,319.363 149.181,319.150 150.381 C 318.938 151.581,318.618 152.751,318.440 152.981 C 318.095 153.426,317.742 154.526,317.212 156.800 C 316.700 158.997,314.967 163.593,314.460 164.100 C 314.207 164.353,314.000 164.805,314.000 165.105 C 314.000 165.974,312.739 169.591,312.352 169.830 C 312.158 169.949,311.997 170.442,311.994 170.924 C 311.987 171.885,311.253 174.105,310.488 175.474 C 310.220 175.954,310.000 176.812,310.000 177.379 C 310.000 177.947,309.842 178.723,309.649 179.105 C 308.709 180.964,308.000 182.905,308.000 183.619 C 308.000 184.055,307.842 184.723,307.649 185.105 C 306.796 186.791,306.000 188.875,306.000 189.419 C 306.000 189.745,305.837 190.323,305.638 190.705 C 305.438 191.087,304.957 192.534,304.568 193.919 C 304.180 195.305,303.713 196.530,303.531 196.643 C 303.349 196.755,303.200 197.280,303.200 197.810 C 303.200 198.671,302.548 200.523,301.551 202.495 C 301.358 202.877,301.199 203.687,301.198 204.295 C 301.196 204.903,300.965 205.850,300.685 206.400 C 300.404 206.950,299.936 208.210,299.644 209.200 C 299.353 210.190,298.874 211.630,298.581 212.400 C 298.288 213.170,297.832 214.520,297.567 215.400 C 297.301 216.280,296.860 217.540,296.585 218.200 C 295.792 220.108,294.366 224.472,294.037 226.000 C 293.871 226.770,293.345 228.278,292.868 229.351 C 292.391 230.424,292.000 231.596,292.000 231.956 C 292.000 232.317,291.625 233.599,291.166 234.806 C 290.708 236.013,290.243 237.360,290.133 237.800 C 290.023 238.240,289.787 238.960,289.609 239.400 C 289.431 239.840,288.797 241.820,288.200 243.800 C 287.194 247.140,286.049 250.599,284.825 254.000 C 284.548 254.770,284.011 256.480,283.632 257.800 C 283.253 259.120,282.749 260.650,282.513 261.200 C 282.277 261.750,281.863 263.010,281.594 264.000 C 281.324 264.990,280.871 266.340,280.585 267.000 C 280.300 267.660,279.793 269.100,279.458 270.200 C 279.124 271.300,278.671 272.740,278.450 273.400 C 278.230 274.060,277.819 275.410,277.538 276.400 C 277.256 277.390,276.796 278.650,276.515 279.200 C 276.235 279.750,276.004 280.575,276.002 281.033 C 276.001 281.492,275.881 281.986,275.735 282.132 C 275.287 282.580,274.000 286.516,274.000 287.439 C 274.000 287.917,273.723 288.824,273.385 289.454 C 272.843 290.465,272.801 293.587,273.028 316.000 C 273.254 338.400,273.213 341.494,272.675 342.200 C 272.115 342.935,271.466 343.016,264.652 343.200 C 259.329 343.344,257.092 343.547,256.719 343.920 C 256.315 344.325,256.170 348.145,256.063 361.201 C 255.944 375.792,255.845 378.030,255.302 378.482 C 254.805 378.894,246.825 379.054,216.239 379.262 C 195.097 379.407,176.661 379.638,175.268 379.777 C 169.136 380.387,169.276 380.814,169.102 360.913 C 169.023 351.845,168.854 344.321,168.726 344.193 C 168.598 344.065,165.325 343.851,161.452 343.718 C 155.160 343.502,154.337 343.393,153.706 342.696 C 153.050 341.972,152.991 340.126,152.879 316.501 L 152.758 291.085 151.779 289.246 C 151.241 288.234,150.800 287.098,150.800 286.722 C 150.800 286.065,150.529 285.287,149.344 282.540 C 149.045 281.846,148.800 280.847,148.800 280.320 C 148.800 279.792,148.657 279.189,148.482 278.980 C 148.091 278.514,147.362 276.281,146.986 274.400 C 146.832 273.630,146.594 272.820,146.456 272.600 C 146.050 271.950,145.213 269.444,145.206 268.860 C 145.203 268.564,144.955 267.754,144.655 267.060 C 144.356 266.367,143.620 264.180,143.019 262.200 C 142.419 260.220,141.776 258.307,141.591 257.949 C 141.406 257.591,141.132 256.644,140.982 255.845 C 140.832 255.045,140.550 254.293,140.355 254.172 C 140.160 254.051,140.000 253.480,140.000 252.903 C 140.000 252.325,139.606 251.038,139.124 250.043 C 138.642 249.047,138.118 247.506,137.958 246.617 C 137.664 244.972,136.319 240.823,135.340 238.540 C 135.043 237.846,134.800 236.912,134.800 236.463 C 134.800 236.014,134.620 235.536,134.400 235.400 C 134.180 235.264,134.000 234.824,134.000 234.422 C 134.000 234.020,133.731 233.176,133.402 232.546 C 133.074 231.916,132.804 230.993,132.802 230.495 C 132.801 229.997,132.635 229.277,132.433 228.895 C 132.232 228.513,131.768 227.120,131.403 225.800 C 131.038 224.480,130.580 223.040,130.385 222.600 C 130.190 222.160,129.738 220.810,129.380 219.600 C 129.021 218.390,128.585 217.040,128.410 216.600 C 128.235 216.160,127.875 214.990,127.611 214.000 C 127.346 213.010,126.901 211.660,126.621 211.000 C 126.341 210.340,125.896 208.900,125.633 207.800 C 125.369 206.700,124.894 205.277,124.577 204.639 C 124.260 204.000,124.000 203.167,124.000 202.788 C 124.000 202.409,123.550 201.082,123.000 199.838 C 122.450 198.595,122.000 197.078,122.000 196.469 C 122.000 195.859,121.843 195.189,121.651 194.980 C 121.460 194.771,120.989 193.520,120.605 192.200 C 120.221 190.880,119.658 189.233,119.354 188.540 C 119.049 187.846,118.800 187.136,118.800 186.962 C 118.800 186.561,116.852 180.069,116.411 179.000 C 115.754 177.408,115.245 175.772,114.979 174.400 C 114.830 173.630,114.586 172.820,114.436 172.600 C 114.287 172.380,113.833 171.237,113.428 170.060 C 113.023 168.883,112.266 167.083,111.747 166.060 C 111.228 165.037,110.803 163.896,110.802 163.524 C 110.801 163.152,110.620 162.736,110.400 162.600 C 110.180 162.464,110.000 162.001,110.000 161.571 C 110.000 161.141,109.832 160.477,109.626 160.095 C 108.602 158.195,108.000 156.587,108.000 155.752 C 108.000 154.924,107.337 153.054,106.351 151.105 C 106.158 150.723,106.000 149.668,106.000 148.759 C 106.000 147.851,105.742 146.273,105.428 145.254 C 104.413 141.968,104.000 139.642,104.000 137.220 C 104.000 135.918,103.803 134.345,103.561 133.726 C 102.986 132.249,102.784 118.265,103.282 114.400 C 103.495 112.750,103.817 110.050,103.998 108.400 C 104.420 104.550,105.109 100.692,105.608 99.379 C 105.824 98.812,106.000 97.764,106.000 97.050 C 106.000 96.336,106.450 94.603,107.000 93.200 C 107.550 91.797,108.000 90.178,108.000 89.604 C 108.000 89.030,108.150 88.389,108.334 88.180 C 108.518 87.971,108.985 86.900,109.372 85.800 C 109.759 84.700,110.328 83.233,110.638 82.540 C 110.947 81.846,111.200 81.172,111.200 81.041 C 111.200 80.910,111.830 79.439,112.600 77.772 C 113.370 76.105,114.000 74.575,114.000 74.371 C 114.000 74.167,114.160 74.000,114.357 74.000 C 114.553 74.000,114.835 73.516,114.983 72.924 C 115.132 72.333,115.601 71.360,116.027 70.763 C 116.452 70.165,116.800 69.540,116.800 69.373 C 116.800 68.951,119.317 65.030,119.693 64.867 C 119.862 64.793,120.000 64.569,120.000 64.368 C 120.000 63.904,126.353 55.046,127.978 53.246 C 128.650 52.501,129.200 51.743,129.200 51.561 C 129.200 50.882,140.295 40.081,143.746 37.400 C 144.595 36.740,145.765 35.782,146.345 35.272 C 146.925 34.761,147.760 34.176,148.200 33.973 C 149.157 33.529,150.522 32.689,150.800 32.372 C 151.273 31.833,155.503 28.938,156.600 28.402 C 157.260 28.080,158.340 27.452,159.000 27.007 C 160.867 25.748,161.689 25.273,163.200 24.579 C 167.415 22.644,169.106 21.849,170.062 21.352 C 170.646 21.048,171.407 20.800,171.753 20.800 C 172.099 20.800,173.331 20.372,174.491 19.848 C 178.243 18.154,180.050 17.594,187.000 15.971 C 191.753 14.861,195.064 14.321,199.200 13.980 C 201.730 13.772,204.790 13.444,206.000 13.251 C 209.460 12.699,215.340 12.756,221.000 13.396 " stroke="none" fill="#5c8c93" fill-rule="evenodd"></path><path id="path3" d="M206.000 13.251 C 204.790 13.444,201.730 13.772,199.200 13.980 C 195.064 14.321,191.753 14.861,187.000 15.971 C 180.050 17.594,178.243 18.154,174.491 19.848 C 173.331 20.372,172.099 20.800,171.753 20.800 C 171.407 20.800,170.646 21.048,170.062 21.352 C 169.106 21.849,167.415 22.644,163.200 24.579 C 161.689 25.273,160.867 25.748,159.000 27.007 C 158.340 27.452,157.260 28.080,156.600 28.402 C 155.503 28.938,151.273 31.833,150.800 32.372 C 150.522 32.689,149.157 33.529,148.200 33.973 C 147.760 34.176,146.925 34.761,146.345 35.272 C 145.765 35.782,144.595 36.740,143.746 37.400 C 140.295 40.081,129.200 50.882,129.200 51.561 C 129.200 51.743,128.650 52.501,127.978 53.246 C 126.353 55.046,120.000 63.904,120.000 64.368 C 120.000 64.569,119.862 64.793,119.693 64.867 C 119.317 65.030,116.800 68.951,116.800 69.373 C 116.800 69.540,116.452 70.165,116.027 70.763 C 115.601 71.360,115.132 72.333,114.983 72.924 C 114.835 73.516,114.553 74.000,114.357 74.000 C 114.160 74.000,114.000 74.167,114.000 74.371 C 114.000 74.575,113.370 76.105,112.600 77.772 C 111.830 79.439,111.200 80.910,111.200 81.041 C 111.200 81.172,110.947 81.846,110.638 82.540 C 110.328 83.233,109.759 84.700,109.372 85.800 C 108.985 86.900,108.518 87.971,108.334 88.180 C 108.150 88.389,108.000 89.030,108.000 89.604 C 108.000 90.178,107.550 91.797,107.000 93.200 C 106.450 94.603,106.000 96.336,106.000 97.050 C 106.000 97.764,105.824 98.812,105.608 99.379 C 105.109 100.692,104.420 104.550,103.998 108.400 C 103.817 110.050,103.495 112.750,103.282 114.400 C 102.784 118.265,102.986 132.249,103.561 133.726 C 103.803 134.345,104.000 135.918,104.000 137.220 C 104.000 139.642,104.413 141.968,105.428 145.254 C 105.742 146.273,106.000 147.851,106.000 148.759 C 106.000 149.668,106.158 150.723,106.351 151.105 C 107.337 153.054,108.000 154.924,108.000 155.752 C 108.000 156.587,108.602 158.195,109.626 160.095 C 109.832 160.477,110.000 161.141,110.000 161.571 C 110.000 162.001,110.180 162.464,110.400 162.600 C 110.620 162.736,110.801 163.152,110.802 163.524 C 110.803 163.896,111.228 165.037,111.747 166.060 C 112.266 167.083,113.023 168.883,113.428 170.060 C 113.833 171.237,114.287 172.380,114.436 172.600 C 114.586 172.820,114.830 173.630,114.979 174.400 C 115.245 175.772,115.754 177.408,116.411 179.000 C 116.852 180.069,118.800 186.561,118.800 186.962 C 118.800 187.136,119.049 187.846,119.354 188.540 C 119.658 189.233,120.221 190.880,120.605 192.200 C 120.989 193.520,121.460 194.771,121.651 194.980 C 121.843 195.189,122.000 195.859,122.000 196.469 C 122.000 197.078,122.450 198.595,123.000 199.838 C 123.550 201.082,124.000 202.409,124.000 202.788 C 124.000 203.167,124.260 204.000,124.577 204.639 C 124.894 205.277,125.369 206.700,125.633 207.800 C 125.896 208.900,126.341 210.340,126.621 211.000 C 126.901 211.660,127.346 213.010,127.611 214.000 C 127.875 214.990,128.235 216.160,128.410 216.600 C 128.585 217.040,129.021 218.390,129.380 219.600 C 129.738 220.810,130.190 222.160,130.385 222.600 C 130.580 223.040,131.038 224.480,131.403 225.800 C 131.768 227.120,132.232 228.513,132.433 228.895 C 132.635 229.277,132.801 229.997,132.802 230.495 C 132.804 230.993,133.074 231.916,133.402 232.546 C 133.731 233.176,134.000 234.020,134.000 234.422 C 134.000 234.824,134.180 235.264,134.400 235.400 C 134.620 235.536,134.800 236.014,134.800 236.463 C 134.800 236.912,135.043 237.846,135.340 238.540 C 136.319 240.823,137.664 244.972,137.958 246.617 C 138.118 247.506,138.642 249.047,139.124 250.043 C 139.606 251.038,140.000 252.325,140.000 252.903 C 140.000 253.480,140.160 254.051,140.355 254.172 C 140.550 254.293,140.832 255.045,140.982 255.845 C 141.132 256.644,141.406 257.591,141.591 257.949 C 141.776 258.307,142.419 260.220,143.019 262.200 C 143.620 264.180,144.356 266.367,144.655 267.060 C 144.955 267.754,145.203 268.564,145.206 268.860 C 145.213 269.444,146.050 271.950,146.456 272.600 C 146.594 272.820,146.832 273.630,146.986 274.400 C 147.362 276.281,148.091 278.514,148.482 278.980 C 148.657 279.189,148.800 279.792,148.800 280.320 C 148.800 280.847,149.049 281.846,149.353 282.540 C 150.090 284.218,150.682 285.956,150.976 287.305 C 151.109 287.913,151.588 288.993,152.040 289.705 C 152.741 290.810,152.822 290.853,152.589 290.000 C 152.439 289.450,152.065 288.601,151.758 288.114 C 151.451 287.627,151.200 286.904,151.200 286.508 C 151.200 286.113,150.825 284.801,150.366 283.594 C 149.908 282.387,149.447 281.040,149.342 280.600 C 149.073 279.472,147.138 273.162,146.766 272.200 C 146.596 271.760,146.161 270.410,145.800 269.200 C 145.439 267.990,145.001 266.640,144.827 266.200 C 144.654 265.760,144.016 263.780,143.409 261.800 C 142.802 259.820,142.076 257.570,141.796 256.800 C 141.515 256.030,141.067 254.590,140.800 253.600 C 140.533 252.610,140.074 251.170,139.781 250.400 C 139.488 249.630,139.043 248.280,138.791 247.400 C 138.539 246.520,138.156 245.260,137.941 244.600 C 137.725 243.940,137.274 242.500,136.938 241.400 C 136.602 240.300,136.073 238.809,135.764 238.086 C 135.454 237.364,135.200 236.455,135.200 236.066 C 135.200 235.678,135.052 235.189,134.871 234.980 C 134.690 234.771,134.249 233.610,133.892 232.400 C 132.836 228.825,129.142 217.068,128.802 216.200 C 128.630 215.760,128.167 214.266,127.775 212.881 C 127.383 211.495,126.913 210.270,126.731 210.157 C 126.549 210.045,126.400 209.517,126.400 208.984 C 126.400 208.129,125.834 206.304,124.793 203.800 C 124.610 203.360,124.374 202.550,124.268 202.000 C 124.162 201.450,123.695 199.920,123.230 198.600 C 121.668 194.170,121.553 193.810,120.809 191.054 C 120.401 189.543,119.872 188.112,119.634 187.874 C 119.395 187.635,119.200 187.083,119.200 186.647 C 119.200 186.211,118.770 184.582,118.245 183.027 C 117.720 181.472,116.792 178.580,116.183 176.600 C 115.574 174.620,114.945 172.640,114.786 172.200 C 114.136 170.406,113.021 167.681,112.138 165.725 C 111.622 164.583,111.200 163.379,111.200 163.048 C 111.200 162.718,111.043 162.350,110.852 162.232 C 110.660 162.114,110.395 161.474,110.262 160.811 C 110.129 160.147,109.656 158.850,109.210 157.927 C 108.765 157.005,108.400 155.825,108.400 155.305 C 108.400 154.785,108.160 153.874,107.867 153.280 C 107.573 152.686,107.111 151.120,106.838 149.800 C 106.566 148.480,106.097 146.410,105.797 145.200 C 105.496 143.990,105.066 141.470,104.841 139.600 C 104.615 137.730,104.219 134.587,103.961 132.615 C 103.303 127.588,103.413 117.099,104.185 111.400 C 104.542 108.760,104.985 105.430,105.169 104.000 C 105.353 102.570,105.693 100.680,105.924 99.800 C 106.155 98.920,106.566 97.120,106.838 95.800 C 107.110 94.480,107.514 93.040,107.736 92.600 C 107.958 92.160,108.267 91.170,108.423 90.400 C 109.185 86.632,113.774 75.781,117.215 69.611 C 119.459 65.587,126.384 55.516,127.812 54.200 C 128.050 53.980,128.759 53.080,129.386 52.200 C 130.811 50.199,140.155 40.727,141.559 39.859 C 142.132 39.506,143.376 38.497,144.323 37.618 C 145.271 36.739,147.521 35.030,149.323 33.821 C 151.126 32.611,153.371 31.077,154.314 30.411 C 155.257 29.745,156.121 29.200,156.233 29.200 C 156.413 29.200,159.163 27.557,161.423 26.099 C 161.851 25.824,162.594 25.427,163.076 25.218 C 165.631 24.110,169.530 22.297,170.462 21.784 C 171.046 21.463,171.831 21.200,172.207 21.200 C 172.583 21.200,173.546 20.858,174.346 20.441 C 175.877 19.641,180.957 17.930,184.000 17.189 C 187.882 16.244,195.502 14.751,197.400 14.565 C 211.531 13.174,211.800 13.167,221.200 13.979 C 226.150 14.406,231.010 14.920,232.000 15.120 C 232.990 15.321,234.970 15.713,236.400 15.992 C 237.830 16.270,239.360 16.653,239.800 16.842 C 240.240 17.031,241.410 17.361,242.400 17.576 C 245.187 18.179,253.962 21.135,255.525 21.997 C 255.896 22.202,257.730 23.099,259.600 23.991 C 261.470 24.883,263.900 26.138,265.000 26.779 C 266.100 27.420,267.370 28.119,267.823 28.333 C 277.735 33.015,293.102 47.267,302.400 60.403 C 304.357 63.168,305.190 64.437,307.657 68.415 C 308.982 70.553,311.161 75.013,314.001 81.400 C 315.480 84.729,318.139 92.793,318.880 96.200 C 319.071 97.080,319.505 99.240,319.843 101.000 C 320.182 102.760,320.635 105.100,320.850 106.200 C 322.010 112.126,322.208 131.397,321.168 137.200 C 319.528 146.358,318.643 150.413,317.632 153.400 C 317.185 154.720,316.815 156.066,316.810 156.392 C 316.799 157.059,315.089 161.777,313.979 164.200 C 313.577 165.080,313.131 166.340,312.990 167.000 C 312.849 167.660,312.494 168.740,312.202 169.400 C 311.909 170.060,311.442 171.410,311.163 172.400 C 310.884 173.390,310.506 174.401,310.323 174.647 C 310.139 174.894,309.649 176.334,309.233 177.847 C 308.817 179.361,308.273 181.140,308.023 181.800 C 307.549 183.053,301.604 201.303,299.750 207.200 C 299.162 209.070,298.257 211.711,297.740 213.068 C 297.223 214.426,296.800 215.806,296.800 216.136 C 296.800 216.465,296.553 217.245,296.250 217.868 C 295.556 219.297,294.047 223.759,293.634 225.600 C 293.462 226.370,293.002 227.720,292.612 228.600 C 292.222 229.480,291.761 230.830,291.587 231.600 C 291.278 232.972,289.836 237.418,289.188 239.000 C 289.007 239.440,288.382 241.420,287.797 243.400 C 287.213 245.380,286.549 247.450,286.320 248.000 C 285.854 249.124,285.296 250.814,284.801 252.600 C 284.619 253.260,284.094 254.787,283.635 255.994 C 283.176 257.201,282.800 258.513,282.800 258.908 C 282.800 259.304,282.554 260.027,282.254 260.514 C 281.954 261.001,281.486 262.300,281.215 263.400 C 280.943 264.500,280.478 265.940,280.180 266.600 C 279.561 267.972,278.257 271.972,277.376 275.200 C 277.046 276.410,276.511 277.967,276.188 278.660 C 275.865 279.354,275.600 280.288,275.600 280.737 C 275.600 281.186,275.441 281.651,275.246 281.772 C 275.051 281.892,274.577 283.208,274.193 284.695 C 273.809 286.183,273.248 288.171,272.947 289.114 C 272.579 290.268,272.424 292.554,272.475 296.114 L 272.549 301.400 272.775 295.519 C 272.924 291.617,273.168 289.470,273.500 289.139 C 273.775 288.864,274.000 288.174,274.000 287.605 C 274.000 286.555,275.248 282.619,275.735 282.132 C 275.881 281.986,276.001 281.492,276.002 281.033 C 276.004 280.575,276.235 279.750,276.515 279.200 C 276.796 278.650,277.256 277.390,277.538 276.400 C 277.819 275.410,278.230 274.060,278.450 273.400 C 278.671 272.740,279.124 271.300,279.458 270.200 C 279.793 269.100,280.300 267.660,280.585 267.000 C 280.871 266.340,281.324 264.990,281.594 264.000 C 281.863 263.010,282.277 261.750,282.513 261.200 C 282.749 260.650,283.253 259.120,283.632 257.800 C 284.011 256.480,284.548 254.770,284.825 254.000 C 286.049 250.599,287.194 247.140,288.200 243.800 C 288.797 241.820,289.431 239.840,289.609 239.400 C 289.787 238.960,290.023 238.240,290.133 237.800 C 290.243 237.360,290.708 236.013,291.166 234.806 C 291.625 233.599,292.000 232.317,292.000 231.956 C 292.000 231.596,292.391 230.424,292.868 229.351 C 293.345 228.278,293.871 226.770,294.037 226.000 C 294.366 224.472,295.792 220.108,296.585 218.200 C 296.860 217.540,297.301 216.280,297.567 215.400 C 297.832 214.520,298.288 213.170,298.581 212.400 C 298.874 211.630,299.353 210.190,299.644 209.200 C 299.936 208.210,300.404 206.950,300.685 206.400 C 300.965 205.850,301.196 204.903,301.198 204.295 C 301.199 203.687,301.358 202.877,301.551 202.495 C 302.548 200.523,303.200 198.671,303.200 197.810 C 303.200 197.280,303.349 196.755,303.531 196.643 C 303.713 196.530,304.180 195.305,304.568 193.919 C 304.957 192.534,305.438 191.087,305.638 190.705 C 305.837 190.323,306.000 189.745,306.000 189.419 C 306.000 188.875,306.796 186.791,307.649 185.105 C 307.842 184.723,308.000 184.055,308.000 183.619 C 308.000 182.905,308.709 180.964,309.649 179.105 C 309.842 178.723,310.000 177.947,310.000 177.379 C 310.000 176.812,310.220 175.954,310.488 175.474 C 311.253 174.105,311.987 171.885,311.994 170.924 C 311.997 170.442,312.158 169.949,312.352 169.830 C 312.739 169.591,314.000 165.974,314.000 165.105 C 314.000 164.805,314.207 164.353,314.460 164.100 C 314.967 163.593,316.700 158.997,317.212 156.800 C 317.742 154.526,318.095 153.426,318.440 152.981 C 318.618 152.751,318.938 151.581,319.150 150.381 C 319.363 149.181,319.828 146.940,320.183 145.400 C 322.428 135.657,322.962 115.514,321.243 105.400 C 320.246 99.536,319.769 97.236,319.495 96.961 C 319.333 96.799,319.200 96.073,319.200 95.347 C 319.200 94.177,318.634 92.448,317.551 90.305 C 317.358 89.923,317.200 89.141,317.200 88.567 C 317.200 87.993,316.904 86.956,316.543 86.262 C 315.342 83.956,315.200 83.615,315.200 83.038 C 315.200 82.723,314.750 81.570,314.200 80.475 C 313.650 79.380,313.200 78.189,313.200 77.829 C 313.200 77.469,312.930 77.071,312.600 76.945 C 312.270 76.818,312.000 76.380,312.000 75.971 C 312.000 75.563,311.521 74.367,310.936 73.314 C 309.669 71.034,309.339 70.397,309.014 69.600 C 308.589 68.559,307.755 67.234,307.000 66.400 C 306.599 65.957,306.075 65.249,305.836 64.827 C 304.009 61.605,302.977 60.022,301.424 58.059 C 300.442 56.816,298.553 54.427,297.226 52.749 C 293.572 48.128,282.105 36.800,281.080 36.800 C 280.886 36.800,279.718 35.900,278.484 34.800 C 277.250 33.700,276.006 32.800,275.720 32.800 C 275.434 32.800,275.200 32.620,275.200 32.400 C 275.200 32.180,275.020 32.000,274.801 32.000 C 274.581 32.000,273.546 31.390,272.501 30.645 C 271.455 29.900,269.969 28.955,269.198 28.545 C 268.427 28.135,267.230 27.395,266.537 26.900 C 265.844 26.405,265.000 26.000,264.662 26.000 C 264.324 26.000,263.945 25.835,263.820 25.633 C 263.696 25.431,262.020 24.512,260.097 23.590 C 258.174 22.669,256.122 21.664,255.538 21.357 C 254.954 21.051,254.223 20.800,253.913 20.800 C 253.603 20.800,252.417 20.350,251.277 19.800 C 250.137 19.250,248.789 18.800,248.282 18.800 C 247.775 18.800,247.189 18.644,246.980 18.454 C 246.771 18.263,245.340 17.798,243.800 17.419 C 242.260 17.041,240.687 16.567,240.305 16.366 C 239.923 16.165,239.203 15.998,238.705 15.996 C 238.207 15.993,236.916 15.723,235.836 15.396 C 234.756 15.068,233.282 14.800,232.560 14.800 C 231.838 14.800,231.136 14.620,231.000 14.400 C 230.864 14.180,229.728 13.996,228.476 13.992 C 227.224 13.988,223.860 13.720,221.000 13.396 C 215.340 12.756,209.460 12.699,206.000 13.251 M152.984 321.600 C 152.984 331.390,153.036 335.395,153.100 330.500 C 153.163 325.605,153.163 317.595,153.100 312.700 C 153.036 307.805,152.984 311.810,152.984 321.600 M272.800 326.826 C 272.800 336.128,272.650 341.563,272.378 342.126 C 271.970 342.970,271.977 342.974,272.578 342.224 C 273.182 341.470,273.593 312.400,273.000 312.400 C 272.890 312.400,272.800 318.892,272.800 326.826 M266.112 343.095 C 267.164 343.177,268.784 343.176,269.712 343.092 C 270.640 343.008,269.780 342.941,267.800 342.942 C 265.820 342.943,265.060 343.012,266.112 343.095 M154.433 343.346 C 154.525 343.426,157.660 343.575,161.400 343.677 C 165.140 343.780,167.210 343.732,166.000 343.571 C 163.743 343.271,154.134 343.084,154.433 343.346 M256.426 343.769 C 256.152 344.099,256.017 345.150,256.105 346.269 L 256.256 348.200 256.328 346.087 C 256.389 344.305,256.541 343.918,257.300 343.612 C 257.909 343.368,257.990 343.243,257.549 343.225 C 257.191 343.211,256.685 343.456,256.426 343.769 M168.934 347.200 C 168.934 348.850,169.005 349.525,169.091 348.700 C 169.178 347.875,169.178 346.525,169.091 345.700 C 169.005 344.875,168.934 345.550,168.934 347.200 M255.660 376.620 C 255.627 377.291,255.376 378.101,255.103 378.420 C 254.829 378.740,254.933 378.710,255.335 378.354 C 255.825 377.919,256.007 377.331,255.892 376.554 L 255.720 375.400 255.660 376.620 M242.900 379.098 C 244.825 379.171,247.975 379.171,249.900 379.098 C 251.825 379.025,250.250 378.965,246.400 378.965 C 242.550 378.965,240.975 379.025,242.900 379.098 M180.500 379.499 C 183.525 379.567,188.475 379.567,191.500 379.499 C 194.525 379.431,192.050 379.375,186.000 379.375 C 179.950 379.375,177.475 379.431,180.500 379.499 M172.705 379.883 C 173.202 379.979,173.922 379.975,174.305 379.875 C 174.687 379.775,174.280 379.696,173.400 379.701 C 172.520 379.705,172.207 379.787,172.705 379.883 " stroke="none" fill="#8e9072" fill-rule="evenodd"></path><path id="path4" d="M207.200 13.642 C 205.550 13.826,202.220 14.151,199.800 14.366 C 191.681 15.085,178.643 18.197,174.346 20.441 C 173.546 20.858,172.583 21.200,172.207 21.200 C 171.831 21.200,171.046 21.463,170.462 21.784 C 169.530 22.297,165.631 24.110,163.076 25.218 C 162.594 25.427,161.851 25.824,161.423 26.099 C 159.163 27.557,156.413 29.200,156.233 29.200 C 156.121 29.200,155.257 29.745,154.314 30.411 C 153.371 31.077,151.126 32.611,149.323 33.821 C 147.521 35.030,145.271 36.739,144.323 37.618 C 143.376 38.497,142.132 39.506,141.559 39.859 C 140.155 40.727,130.811 50.199,129.386 52.200 C 128.759 53.080,128.050 53.980,127.812 54.200 C 127.022 54.928,123.807 59.341,121.102 63.411 C 117.409 68.967,116.213 71.161,112.602 79.000 C 111.164 82.124,108.784 88.616,108.423 90.400 C 108.267 91.170,107.958 92.160,107.736 92.600 C 107.514 93.040,107.110 94.480,106.838 95.800 C 106.566 97.120,106.155 98.920,105.924 99.800 C 105.693 100.680,105.353 102.570,105.169 104.000 C 104.985 105.430,104.542 108.760,104.185 111.400 C 103.413 117.099,103.303 127.588,103.961 132.615 C 104.219 134.587,104.615 137.730,104.841 139.600 C 105.066 141.470,105.496 143.990,105.797 145.200 C 106.097 146.410,106.566 148.480,106.838 149.800 C 107.111 151.120,107.573 152.686,107.867 153.280 C 108.160 153.874,108.400 154.785,108.400 155.305 C 108.400 155.825,108.765 157.005,109.210 157.927 C 109.656 158.850,110.129 160.147,110.262 160.811 C 110.395 161.474,110.660 162.114,110.852 162.232 C 111.043 162.350,111.200 162.718,111.200 163.048 C 111.200 163.379,111.622 164.583,112.138 165.725 C 113.021 167.681,114.136 170.406,114.786 172.200 C 114.945 172.640,115.574 174.620,116.183 176.600 C 116.792 178.580,117.720 181.472,118.245 183.027 C 118.770 184.582,119.200 186.211,119.200 186.647 C 119.200 187.083,119.395 187.635,119.634 187.874 C 119.872 188.112,120.401 189.543,120.809 191.054 C 121.553 193.810,121.668 194.170,123.230 198.600 C 123.695 199.920,124.162 201.450,124.268 202.000 C 124.374 202.550,124.610 203.360,124.793 203.800 C 125.834 206.304,126.400 208.129,126.400 208.984 C 126.400 209.517,126.549 210.045,126.731 210.157 C 126.913 210.270,127.383 211.495,127.775 212.881 C 128.167 214.266,128.630 215.760,128.802 216.200 C 129.142 217.068,132.836 228.825,133.892 232.400 C 134.249 233.610,134.690 234.771,134.871 234.980 C 135.052 235.189,135.200 235.678,135.200 236.066 C 135.200 236.455,135.454 237.364,135.764 238.086 C 136.073 238.809,136.602 240.300,136.938 241.400 C 137.274 242.500,137.725 243.940,137.941 244.600 C 138.156 245.260,138.539 246.520,138.791 247.400 C 139.043 248.280,139.488 249.630,139.781 250.400 C 140.074 251.170,140.533 252.610,140.800 253.600 C 141.067 254.590,141.515 256.030,141.796 256.800 C 142.076 257.570,142.802 259.820,143.409 261.800 C 144.016 263.780,144.654 265.760,144.827 266.200 C 145.001 266.640,145.439 267.990,145.800 269.200 C 146.161 270.410,146.596 271.760,146.766 272.200 C 147.138 273.162,149.073 279.472,149.342 280.600 C 149.447 281.040,149.908 282.387,150.366 283.594 C 150.825 284.801,151.200 286.049,151.200 286.368 C 151.200 286.687,151.554 287.679,151.986 288.574 L 152.772 290.200 156.286 290.004 L 159.800 289.809 156.898 289.687 C 153.348 289.538,153.449 289.664,151.189 282.600 C 150.274 279.740,149.193 276.500,148.788 275.400 C 148.383 274.300,147.930 272.791,147.782 272.046 C 147.634 271.302,147.176 269.952,146.765 269.046 C 146.354 268.141,146.013 267.040,146.006 266.600 C 146.000 266.160,145.761 265.350,145.476 264.800 C 145.190 264.250,144.722 262.900,144.436 261.800 C 143.604 258.598,140.779 249.955,139.955 248.089 C 139.540 247.148,139.200 246.145,139.200 245.860 C 139.200 245.575,138.210 242.299,137.000 238.582 C 135.790 234.864,134.800 231.513,134.800 231.135 C 134.800 230.757,134.643 230.350,134.452 230.232 C 134.260 230.114,133.989 229.428,133.849 228.708 C 133.709 227.989,133.262 226.500,132.855 225.400 C 132.448 224.300,131.636 221.870,131.051 220.000 C 130.466 218.130,129.297 214.440,128.454 211.800 C 126.551 205.844,125.088 201.211,123.719 196.800 C 123.139 194.930,122.440 192.860,122.168 192.200 C 121.895 191.540,121.462 190.190,121.205 189.200 C 120.947 188.210,120.062 185.330,119.237 182.800 C 118.411 180.270,117.239 176.580,116.631 174.600 C 116.023 172.620,115.369 170.640,115.177 170.200 C 114.984 169.760,114.356 168.320,113.781 167.000 C 112.196 163.361,109.235 155.088,108.819 153.133 C 108.617 152.180,108.064 149.870,107.592 148.000 C 105.834 141.038,105.552 139.389,105.135 133.662 C 104.591 126.189,104.988 110.102,105.816 106.000 C 106.150 104.350,106.599 101.937,106.814 100.638 C 107.030 99.339,107.490 97.359,107.837 96.238 C 108.184 95.117,108.698 93.210,108.979 92.000 C 109.528 89.641,110.483 86.833,111.665 84.104 C 112.069 83.172,112.400 82.232,112.400 82.015 C 112.400 81.630,113.687 78.594,114.525 77.000 C 114.756 76.560,115.633 74.799,116.473 73.087 C 117.313 71.374,118.782 68.764,119.738 67.287 C 120.693 65.809,121.905 63.880,122.432 63.000 C 123.294 61.558,127.848 55.291,128.391 54.800 C 128.512 54.690,129.689 53.342,131.006 51.805 C 134.078 48.218,140.036 42.256,142.603 40.200 C 143.701 39.320,144.690 38.497,144.800 38.372 C 145.463 37.616,155.089 30.800,155.493 30.800 C 155.594 30.800,156.244 30.395,156.937 29.900 C 158.927 28.479,167.001 24.267,169.800 23.189 C 170.240 23.020,171.230 22.620,172.000 22.299 C 191.451 14.211,215.073 12.560,238.800 17.630 C 240.010 17.889,242.307 18.528,243.904 19.050 C 245.500 19.573,246.987 20.000,247.208 20.000 C 247.428 20.000,248.372 20.345,249.304 20.768 C 250.237 21.190,251.450 21.657,252.000 21.806 C 254.451 22.468,266.332 28.243,268.676 29.911 C 269.362 30.400,270.036 30.800,270.173 30.800 C 270.415 30.800,278.800 36.721,279.200 37.175 C 279.310 37.300,280.660 38.428,282.200 39.683 C 289.856 45.919,299.590 57.111,304.737 65.596 C 308.112 71.159,312.063 78.744,312.834 81.140 C 313.093 81.943,313.437 82.780,313.599 83.000 C 314.106 83.690,316.400 90.959,316.400 91.877 C 316.400 92.359,316.559 92.851,316.752 92.970 C 316.946 93.090,317.225 93.686,317.373 94.294 C 318.176 97.604,318.909 101.583,319.604 106.400 C 320.033 109.370,320.567 113.018,320.792 114.507 C 321.313 117.967,321.320 127.482,320.802 130.376 C 320.584 131.599,320.117 135.120,319.764 138.200 C 319.412 141.280,318.983 143.980,318.811 144.200 C 318.639 144.420,318.376 145.680,318.227 147.000 C 317.904 149.848,315.532 157.455,312.615 165.000 C 312.019 166.540,311.387 168.340,311.209 169.000 C 311.031 169.660,310.480 171.370,309.983 172.800 C 309.486 174.230,308.679 176.570,308.190 178.000 C 307.701 179.430,306.990 181.500,306.611 182.600 C 306.231 183.700,305.750 185.230,305.542 186.000 C 305.333 186.770,305.008 187.760,304.820 188.200 C 304.631 188.640,303.911 190.800,303.219 193.000 C 302.528 195.200,301.636 197.900,301.238 199.000 C 300.839 200.100,300.006 202.620,299.386 204.600 C 298.766 206.580,297.651 210.000,296.908 212.200 C 296.165 214.400,295.297 217.154,294.978 218.320 C 294.660 219.486,294.130 220.962,293.800 221.600 C 293.470 222.238,293.200 223.080,293.200 223.470 C 293.200 223.861,292.768 225.355,292.241 226.790 C 291.713 228.226,290.797 230.930,290.205 232.800 C 289.613 234.670,288.977 236.560,288.793 237.000 C 288.608 237.440,288.161 238.790,287.800 240.000 C 287.439 241.210,286.983 242.560,286.788 243.000 C 286.593 243.440,286.230 244.610,285.981 245.600 C 285.732 246.590,285.299 247.940,285.018 248.600 C 284.738 249.260,283.922 251.690,283.206 254.000 C 282.490 256.310,281.758 258.560,281.580 259.000 C 281.402 259.440,281.052 260.520,280.802 261.400 C 280.553 262.280,280.114 263.630,279.827 264.400 C 279.541 265.170,278.980 266.880,278.582 268.200 C 278.184 269.520,277.710 270.771,277.529 270.980 C 277.348 271.189,277.200 271.828,277.200 272.400 C 277.200 272.972,277.042 273.611,276.848 273.820 C 276.427 274.274,273.200 284.151,273.200 284.985 C 273.200 285.305,272.706 286.385,272.103 287.384 L 271.006 289.200 216.836 289.200 C 187.043 289.200,162.771 289.304,162.898 289.432 C 163.026 289.559,187.491 289.714,217.265 289.777 C 247.039 289.839,271.692 290.015,272.049 290.168 C 272.518 290.370,272.756 290.191,272.907 289.523 C 273.634 286.307,274.871 282.169,275.206 281.834 C 275.422 281.618,275.600 281.098,275.600 280.680 C 275.600 280.263,275.865 279.354,276.188 278.660 C 276.511 277.967,277.046 276.410,277.376 275.200 C 278.257 271.972,279.561 267.972,280.180 266.600 C 280.478 265.940,280.943 264.500,281.215 263.400 C 281.486 262.300,281.954 261.001,282.254 260.514 C 282.554 260.027,282.800 259.304,282.800 258.908 C 282.800 258.513,283.176 257.201,283.635 255.994 C 284.094 254.787,284.619 253.260,284.801 252.600 C 285.296 250.814,285.854 249.124,286.320 248.000 C 286.549 247.450,287.213 245.380,287.797 243.400 C 288.382 241.420,289.007 239.440,289.188 239.000 C 289.836 237.418,291.278 232.972,291.587 231.600 C 291.761 230.830,292.222 229.480,292.612 228.600 C 293.002 227.720,293.462 226.370,293.634 225.600 C 294.047 223.759,295.556 219.297,296.250 217.868 C 296.553 217.245,296.800 216.465,296.800 216.136 C 296.800 215.806,297.223 214.426,297.740 213.068 C 298.257 211.711,299.162 209.070,299.750 207.200 C 301.604 201.303,307.549 183.053,308.023 181.800 C 308.273 181.140,308.817 179.361,309.233 177.847 C 309.649 176.334,310.139 174.894,310.323 174.647 C 310.506 174.401,310.884 173.390,311.163 172.400 C 311.442 171.410,311.909 170.060,312.202 169.400 C 312.494 168.740,312.849 167.660,312.990 167.000 C 313.131 166.340,313.577 165.080,313.979 164.200 C 315.089 161.777,316.799 157.059,316.810 156.392 C 316.815 156.066,317.185 154.720,317.632 153.400 C 318.643 150.413,319.528 146.358,321.168 137.200 C 322.327 130.730,321.999 112.036,320.599 104.800 C 319.392 98.557,319.243 97.809,318.886 96.200 C 318.116 92.723,315.468 84.702,314.001 81.400 C 311.161 75.013,308.982 70.553,307.657 68.415 C 305.190 64.437,304.357 63.168,302.400 60.403 C 293.102 47.267,277.735 33.015,267.823 28.333 C 267.370 28.119,266.100 27.420,265.000 26.779 C 263.900 26.138,261.470 24.883,259.600 23.991 C 257.730 23.099,255.896 22.202,255.525 21.997 C 253.962 21.135,245.187 18.179,242.400 17.576 C 241.410 17.361,240.240 17.031,239.800 16.842 C 239.360 16.653,237.830 16.270,236.400 15.992 C 234.970 15.713,232.990 15.320,232.000 15.120 C 230.017 14.718,213.312 13.222,211.400 13.275 C 210.740 13.294,208.850 13.459,207.200 13.642 " stroke="none" fill="#a39462" fill-rule="evenodd"></path></g></svg>